# xmcd CD Database Entry
#
# Track frame offsets:
# 150
# 16337
# 31325
# 46137
# 60975
# 73657
# 88427
# 102902
# 121517
# 134877
# 146082
# 158432
# 172197
# 189552
#
# Disc length: 2730 seconds
#
# Revision: 2
# Processed by: cddbd v1.4PL0 Copyright (c) Steve Scherf et al.
# Submitted via: tcd 2.0b
#
DISCID=c10aa80e
DTITLE=รุ่งเพชร แหลมสิงห์
DYEAR=1900
DGENRE=
TTITLE0=ความรักเจ้าขา
TTITLE1=แล้วแต่วาสนา
TTITLE2=ราคาเท่าไหร่
TTITLE3=ไอดินกลิ่นสาว
TTITLE4=ฉันไม่โง่ดอกเธอ
TTITLE5=ตามใจน้อง
TTITLE6=ปีหน้าพาเที่ยวกรุง
TTITLE7=สองฝั่งโขง
TTITLE8=เมืองไทยเมืองเกษตรกร
TTITLE9=รำโทนของไทย
TTITLE10=รำวงแสงเดือน
TTITLE11=คุณพ่อใจดี
TTITLE12=ทองดีใจดำ
TTITLE13=รักเต็มแปล้
EXTD=
EXTT0=\t\t
EXTT1=
EXTT2=
EXTT3=
EXTT4=\t\t\t\t\t\t\t\t
EXTT5=
EXTT6=
EXTT7=
EXTT8=
EXTT9=
EXTT10=
EXTT11=
EXTT12=
EXTT13=
PLAYORDER=
